<svg id="SvgjsSvg1001" width="288" height="288" xmlns="http://www.w3.org/2000/svg" version="1.1" xmlns:xlink="http://www.w3.org/1999/xlink" xmlns:svgjs="http://svgjs.com/svgjs"><defs id="SvgjsDefs1002"></defs><g id="SvgjsG1008" transform="matrix(1,0,0,1,0,0)"><svg xmlns="http://www.w3.org/2000/svg" enable-background="new 0 0 512 512" viewBox="0 0 512 512" width="288" height="288"><path fill="#66ccff" d="M391.217 235.56H36.404c-14.472 0-26.205-11.732-26.205-26.204 0-14.473 11.733-26.205 26.205-26.205h354.813c32.078 0 58.174-26.098 58.174-58.174s-26.098-58.174-58.174-58.174-58.174 26.098-58.174 58.174c0 14.473-11.733 26.205-26.205 26.205-14.472 0-26.205-11.732-26.205-26.205 0-60.976 49.608-110.584 110.584-110.584S501.801 64 501.801 124.976 452.193 235.56 391.217 235.56zM391.217 497.608c-60.976 0-110.584-49.608-110.584-110.584 0-14.473 11.733-26.205 26.205-26.205 14.472 0 26.205 11.732 26.205 26.205 0 32.077 26.098 58.174 58.174 58.174s58.174-26.098 58.174-58.174-26.098-58.174-58.174-58.174H36.404c-14.472-.001-26.205-11.733-26.205-26.206 0-14.473 11.733-26.205 26.205-26.205h354.813c60.976 0 110.584 49.609 110.584 110.585S452.193 497.608 391.217 497.608z" class="colorfff svgShape"></path><path fill="#66ccff" d="M391.217 245.759H36.404C16.331 245.759 0 229.429 0 209.356s16.331-36.404 36.404-36.404h354.813c26.454 0 47.975-21.522 47.975-47.976S417.67 77 391.217 77c-26.455 0-47.976 21.522-47.976 47.976 0 20.073-16.331 36.404-36.403 36.404-20.074 0-36.404-16.331-36.404-36.404 0-66.6 54.183-120.783 120.784-120.783C457.817 4.193 512 58.376 512 124.976S457.817 245.759 391.217 245.759zM36.404 193.35c-8.825 0-16.006 7.18-16.006 16.006 0 8.825 7.18 16.006 16.006 16.006h354.813c55.352 0 100.385-45.033 100.385-100.385S446.57 24.592 391.217 24.592 290.831 69.625 290.831 124.977c0 8.825 7.18 16.006 16.006 16.006 8.824 0 16.005-7.18 16.005-16.006 0-37.701 30.672-68.374 68.374-68.374 37.701 0 68.373 30.672 68.373 68.374s-30.672 68.374-68.373 68.374L36.404 193.35 36.404 193.35zM391.217 507.807c-66.601 0-120.784-54.183-120.784-120.783 0-20.073 16.331-36.404 36.404-36.404s36.403 16.331 36.403 36.404c0 26.454 21.522 47.976 47.976 47.976 26.454 0 47.975-21.522 47.975-47.976 0-26.454-21.522-47.976-47.975-47.976H36.404C16.331 339.048 0 322.718 0 302.644c0-20.074 16.331-36.404 36.404-36.404h354.813c66.6 0 120.783 54.183 120.783 120.783S457.817 507.807 391.217 507.807zM306.838 371.018c-8.825 0-16.006 7.18-16.006 16.006 0 55.352 45.033 100.385 100.386 100.385s100.384-45.033 100.384-100.385S446.57 286.639 391.217 286.639H36.404c-8.825 0-16.006 7.18-16.006 16.006s7.18 16.006 16.006 16.006h354.813c37.701 0 68.373 30.672 68.373 68.374S428.918 455.4 391.217 455.4c-37.702 0-68.374-30.672-68.374-68.374C322.843 378.199 315.662 371.018 306.838 371.018z" class="color3d3d3d svgShape"></path><path fill="#66ccff" d="M171.621 153.518H24.874c-5.632 0-10.199-4.566-10.199-10.199s4.567-10.199 10.199-10.199h146.747c5.632 0 10.199 4.566 10.199 10.199S177.253 153.518 171.621 153.518zM222.982 153.518h-7.337c-5.632 0-10.199-4.566-10.199-10.199s4.567-10.199 10.199-10.199h7.337c5.632 0 10.199 4.566 10.199 10.199S228.614 153.518 222.982 153.518zM222.982 378.88H24.874c-5.632 0-10.199-4.566-10.199-10.199s4.567-10.199 10.199-10.199h198.108c5.632 0 10.199 4.566 10.199 10.199S228.614 378.88 222.982 378.88z" class="color3d3d3d svgShape"></path></svg></g></svg>